<?xml version="1.0" encoding="UTF-8" standalone="no" ?>
<!DOCTYPE svg PUBLIC "-//W3C//DTD SVG 1.1//EN" "http://www.w3.org/Graphics/SVG/1.1/DTD/svg11.dtd">
<svg xmlns="http://www.w3.org/2000/svg" xmlns:xlink="http://www.w3.org/1999/xlink" version="1.1" width="1080" height="1080" viewBox="0 0 1080 1080" xml:space="preserve">
<desc>Created with Fabric.js 5.2.4</desc>
<defs>
</defs>
<g transform="matrix(1 0 0 1 540 540)" id="f758094a-ae66-4f2b-be42-307f2e8cfe7c"  >
<rect style="stroke: none; stroke-width: 1; stroke-dasharray: none; stroke-linecap: butt; stroke-dashoffset: 0; stroke-linejoin: miter; stroke-miterlimit: 4; fill: rgb(255,255,255); fill-rule: nonzero; opacity: 1; visibility: hidden;" vector-effect="non-scaling-stroke"  x="-540" y="-540" rx="0" ry="0" width="1080" height="1080" />
</g>
<g transform="matrix(1 0 0 1 540 540)" id="fb74114f-51af-410c-bbb1-f7b644f99f6f"  >
</g>
<g transform="matrix(1 0 0 1 540 540)" id="b59639e4-d4be-494a-861c-9ea4aa033b84"  >
<path style="stroke: rgb(0,0,0); stroke-width: 0; stroke-dasharray: none; stroke-linecap: butt; stroke-dashoffset: 0; stroke-linejoin: miter; stroke-miterlimit: 4; fill: rgb(255,255,255); fill-rule: nonzero; opacity: 1;" vector-effect="non-scaling-stroke"  transform=" translate(-256, -256)" d="M 479.07 111.36 C 478.6048097583043 104.00437684181888 473.1750961107414 97.91814268477877 465.92 96.62 C 379.42 81.10000000000001 343.31 69.88000000000001 262.59000000000003 33.42 C 258.40069684347395 31.52646090426085 253.5993031565261 31.52646090426085 249.41000000000003 33.42 C 168.69 69.88 132.58 81.1 46.08 96.62 C 38.82490388925862 97.91814268477877 33.3951902416957 104.00437684181888 32.93 111.36 C 29.08 172.47 37.29 229.41 57.36 280.6 C 73.79521550492163 322.35492215658894 98.11814852200641 360.553877959942 129 393.1100000000001 C 182.47 449.84000000000003 239.24 474.48 250.07 478.84000000000003 C 253.91852257490248 480.3968040344116 258.22147742509753 480.3968040344116 262.07 478.84000000000003 C 272.9 474.48 329.66999999999996 449.84000000000003 383.14 393.11 C 413.97172578388444 360.5418562095896 438.24661928986126 322.3436986101847 454.64000000000004 280.5999999999999 C 474.71 229.41 482.92 172.47 479.07 111.36 Z M 348.07 186.47 L 237.26999999999998 314.47 C 234.39051759124084 317.80598987819366 230.26259682195231 319.8066385945973 225.86 320 L 225.20000000000002 320 C 221.01248098348555 320.0009920132759 216.99145886386083 318.3602713805362 214.00000000000003 315.43 L 164.8 267.23 C 158.48738530943405 261.04441080189514 158.38441080189511 250.912614690566 164.57000000000002 244.60000000000002 C 170.7555891981049 238.28738530943403 180.88738530943405 238.18441080189513 187.20000000000002 244.37 L 224.20000000000002 280.66 L 323.9 165.53 C 329.6824213307284 158.8473545270474 339.7873545270474 158.1175786692716 346.46999999999997 163.9 C 353.1526454729526 169.6824213307284 353.8824213307284 179.7873545270474 348.09999999999997 186.47 Z" stroke-linecap="round" />
</g>
</svg>