<?xml version="1.0" encoding="UTF-8" standalone="no" ?>
<!DOCTYPE svg PUBLIC "-//W3C//DTD SVG 1.1//EN" "http://www.w3.org/Graphics/SVG/1.1/DTD/svg11.dtd">
<svg xmlns="http://www.w3.org/2000/svg" xmlns:xlink="http://www.w3.org/1999/xlink" version="1.1" width="1080" height="1080" viewBox="0 0 1080 1080" xml:space="preserve">
<desc>Created with Fabric.js 5.2.4</desc>
<defs>
</defs>
<g transform="matrix(1 0 0 1 540 540)" id="65dadacd-697c-4382-a2c2-ad834fd6aae5"  >
<rect style="stroke: none; stroke-width: 1; stroke-dasharray: none; stroke-linecap: butt; stroke-dashoffset: 0; stroke-linejoin: miter; stroke-miterlimit: 4; fill: rgb(255,255,255); fill-rule: nonzero; opacity: 1; visibility: hidden;" vector-effect="non-scaling-stroke"  x="-540" y="-540" rx="0" ry="0" width="1080" height="1080" />
</g>
<g transform="matrix(1 0 0 1 540 540)" id="539f2f72-e47c-4be1-bbdd-513d39d98be4"  >
</g>
<g transform="matrix(1 0 0 1 540 540)"  >
<g style="" vector-effect="non-scaling-stroke"   >
		<g transform="matrix(1 0 0 1 0 -1.31)"  >
<path style="stroke: none; stroke-width: 1; stroke-dasharray: none; stroke-linecap: butt; stroke-dashoffset: 0; stroke-linejoin: miter; stroke-miterlimit: 4; fill: rgb(255,255,255); fill-rule: nonzero; opacity: 1;" vector-effect="non-scaling-stroke"  transform=" translate(-8, -6.69)" d="M 15.964 0.686 C 16.03834365691539 0.5002691417677319 15.994821168656918 0.28810260561187045 15.853359281522524 0.1466407184774765 C 15.71189739438813 0.005178831343082613 15.499730858232269 -0.03834365691538966 15.314 0.03599999999999992 L 0.767 5.855 L 0.766 5.855 L 0.314 6.035 C 0.13944402143167112 6.104628460368458 0.018673193647329334 6.2662564338775875 0.001373444194678608 6.453389089542237 C -0.015926305257972118 6.640521745206886 0.07316708599892721 6.821550920476311 0.23200000000000018 6.922000000000001 L 0.6419999999999999 7.182 L 0.6429999999999999 7.184 L 5.638 10.362 L 7.228 12.86 C 8 14 8 13 8 12.5 C 7.999757941697668 11.214760526187561 8.54908117832912 9.990750270635608 9.509449187827485 9.136622733338017 C 10.469817197325849 8.282495196040427 11.749570825006321 7.879769760491245 13.025999999999998 8.030000000000001 L 15.964 0.686 Z M 14.131 2.576 L 6.637 10.07 L 6.422 9.732000000000001 C 6.382605896699302 9.66997461572174 6.330025384278261 9.617394103300699 6.268 9.578000000000001 L 5.93 9.363000000000001 L 13.424 1.8690000000000015 L 14.602 1.3980000000000015 L 14.132 2.5760000000000014 Z" stroke-linecap="round" />
</g>
		<g transform="matrix(1 0 0 1 4.5 4.5)"  >
<path style="stroke: none; stroke-width: 1; stroke-dasharray: none; stroke-linecap: butt; stroke-dashoffset: 0; stroke-linejoin: miter; stroke-miterlimit: 4; fill: rgb(255,255,255); fill-rule: nonzero; opacity: 1;" vector-effect="non-scaling-stroke"  transform=" translate(-12.5, -12.5)" d="M 16 12.5 C 16 14.432996624407778 14.432996624407778 16 12.5 16 C 10.567003375592222 16 9 14.432996624407778 9 12.5 C 9 10.567003375592222 10.567003375592222 9 12.5 9 C 14.432996624407778 9 16 10.567003375592222 16 12.5 Z M 14.007 10.821 C 13.893228117926638 10.752815120301843 13.757025621092401 10.732630542995715 13.628368565323578 10.764888580302182 C 13.499711509554757 10.797146617608652 13.38914391740223 10.879203578742365 13.321 10.993 L 12.151 12.943 L 11.604 12.395999999999999 C 11.408491198559899 12.200491198559899 11.0915088014401 12.200491198559899 10.895999999999999 12.395999999999999 C 10.700491198559899 12.5915088014401 10.700491198559899 12.908491198559899 10.895999999999999 13.104 L 11.669999999999998 13.876999999999999 C 11.833247269533985 14.040565130049385 12.062782148095033 14.11974127075863 12.292154522543242 14.09160701017895 C 12.521526896991451 14.063472749599272 12.725122274124946 13.931169899503306 12.843999999999998 13.732999999999999 L 14.178999999999998 11.506999999999998 C 14.247184879698155 11.393228117926636 14.267369457004284 11.2570256210924 14.235111419697816 11.128368565323576 C 14.202853382391346 10.999711509554755 14.120796421257634 10.88914391740223 14.006999999999998 10.820999999999998 Z" stroke-linecap="round" />
</g>
</g>
</g>
</svg>