<svg width="1444.47" height="635.72" xmlns="http://www.w3.org/2000/svg">

 <g>
  <title>Layer 1</title>
  <path id="svg_1" fill="#ffffff" d="m1151.68,294.37c34.28,0 50.11,19.74 50.11,59.01l0,56.4c0,6.94 -3.91,10.85 -10.85,10.85l-2.6,0c-6.94,0 -10.84,-3.9 -10.84,-10.85l0,-54.45c0,-27.12 -10.41,-39.91 -33.41,-39.91s-32.97,15.4 -32.97,42.74l0,51.63c0,6.94 -3.91,10.85 -10.85,10.85l-2.6,0c-6.94,0 -10.85,-3.9 -10.85,-10.85l0,-102.39c0,-6.94 3.91,-10.85 10.85,-10.85l2.6,0c6.94,0 10.85,3.91 10.85,10.85l0,12.34c5.64,-14.39 19.73,-25.36 40.56,-25.36l0,0l0,-0.01z" class="cls-2"/>
  <path id="svg_2" fill="#ffffff" d="m0,313.78l0,55.76c0,37.96 14.53,51.2 46.42,51.2l0,0c1.96,0 4.12,-0.03 6.29,-0.22c6.9,-0.65 9.8,-4.45 9.11,-11.07c-0.61,-5.88 -4.99,-8.24 -11.71,-8.24c-18.88,0 -25.6,-8.9 -25.6,-34.49l0,-52.94l25.81,0c6.94,0 10.85,-3.47 10.85,-9.54s-3.9,-9.33 -10.85,-9.33l-25.81,0l0,-15.83c0,-7.59 -4.34,-11.28 -11.93,-9.55l-3.04,0.65c-6.29,1.3 -9.54,5.21 -9.54,11.71l0,31.89z" class="cls-2"/>
  <path id="svg_3" fill="#ffffff" d="m139.49,295.02c7.38,0 11.06,4.77 10.2,11.71l-0.22,1.74c-0.65,6.94 -4.77,9.54 -11.93,9.54c-20.39,0.43 -30.16,15.19 -30.16,41.22l0,50.55c0,6.94 -3.9,10.85 -10.85,10.85l-2.6,0c-6.94,0 -10.85,-3.9 -10.85,-10.85l0,-102.39c0,-6.94 3.9,-10.85 10.85,-10.85l2.6,0c6.94,0 10.85,3.69 10.85,10.41l0,10.41c3.91,-11.07 13.89,-22.34 32.1,-22.34l0,0l0.01,0z" class="cls-2"/>
  <path id="svg_4" fill="#ffffff" d="m259.67,358.59c0,-27.12 -15.84,-43.82 -38.83,-43.82s-38.4,16.49 -38.4,43.82s15.62,44.04 38.83,44.04s38.4,-16.7 38.4,-44.04m-101.53,0c0,-42.74 26.03,-64.43 56.84,-64.43c19.52,0 36.88,9.54 44.04,26.69l0,-13.45c0,-6.94 3.9,-10.85 10.85,-10.85l2.6,0c6.94,0 10.85,3.9 10.85,10.85l0,102.18c0,6.94 -3.9,10.85 -10.85,10.85l-2.6,0c-6.94,0 -10.85,-3.9 -10.85,-10.85l0,-12.58c-6.94,16.7 -24.51,26.47 -43.82,26.47c-30.81,0 -57.06,-21.91 -57.06,-64.87" class="cls-2"/>
  <path id="svg_5" fill="#ffffff" d="m380.06,294.37c34.28,0 50.11,19.74 50.11,59.01l0,56.4c0,6.94 -3.91,10.85 -10.85,10.85l-2.6,0c-6.94,0 -10.85,-3.9 -10.85,-10.85l0,-54.45c0,-27.12 -10.41,-39.91 -33.41,-39.91s-32.98,15.4 -32.98,42.74l0,51.63c0,6.94 -3.9,10.85 -10.85,10.85l-2.6,0c-6.94,0 -10.85,-3.9 -10.85,-10.85l0,-102.39c0,-6.94 3.91,-10.85 10.85,-10.85l2.6,0c6.94,0 10.85,3.91 10.85,10.85l0,12.34c5.64,-14.39 19.73,-25.36 40.57,-25.36l0,0l0.01,-0.01z" class="cls-2"/>
  <path id="svg_6" fill="#ffffff" d="m508.94,422.81c-20.8,0 -42.78,-8.33 -53.19,-21.48c-4.44,-5.61 -2.26,-11.49 4.99,-13.67l2.17,-0.65c4.75,-1.43 8.02,-1.28 14.32,4.36c8.65,7.74 20.41,10.61 31.71,10.61c18.05,0 28.81,-6.44 28.81,-17.36c0,-28.63 -80.45,-5.9 -80.45,-54.24c0,-22.87 23.1,-36.01 49.75,-36.01c16.09,0 36.22,6.5 47,17.79c5.1,5.33 3.34,11.34 -3.68,13.45l-2.17,0.65c-5.86,1.76 -8.85,-0.39 -14.53,-3.84c-8.11,-4.92 -16.87,-8.09 -26.22,-8.09c-15.64,0 -26.27,5.18 -26.27,14.91c0,27.74 81.1,4.51 81.1,54.72c0,23.06 -22.28,38.83 -53.32,38.83l0,0l-0.02,0.02z" class="cls-2"/>
  <path id="svg_7" fill="#ffffff" d="m585.05,409.79l0,-142.75c0,-6.94 3.9,-10.85 10.85,-10.85l2.82,0c6.94,0 10.85,3.9 10.85,10.85l0,142.75c0,6.94 -3.91,10.85 -10.85,10.85l-2.82,0c-6.94,0 -10.85,-3.91 -10.85,-10.85" class="cls-2"/>
  <path id="svg_8" fill="#ffffff" d="m737.56,358.59c0,-27.12 -15.84,-43.82 -38.84,-43.82s-38.4,16.49 -38.4,43.82s15.62,44.04 38.83,44.04s38.4,-16.7 38.4,-44.04m-101.53,0c0,-42.74 26.03,-64.43 56.84,-64.43c19.52,0 36.88,9.54 44.04,26.69l0,-13.45c0,-6.94 3.9,-10.85 10.85,-10.85l2.6,0c6.94,0 10.85,3.9 10.85,10.85l0,102.18c0,6.94 -3.9,10.85 -10.85,10.85l-2.6,0c-6.94,0 -10.85,-3.9 -10.85,-10.85l0,-12.58c-6.94,16.7 -24.51,26.47 -43.82,26.47c-30.81,0 -57.06,-21.91 -57.06,-64.87" class="cls-2"/>
  <path id="svg_9" fill="#ffffff" d="m800.25,315.42l0,55.76c0,37.96 14.53,51.2 46.42,51.2l0,0c1.95,0 4.12,-0.03 6.29,-0.22c6.89,-0.65 9.8,-4.45 9.11,-11.07c-0.61,-5.88 -4.99,-8.24 -11.71,-8.24c-18.87,0 -25.6,-8.9 -25.6,-34.49l0,-52.94l25.81,0c6.94,0 10.85,-3.47 10.85,-9.55s-3.91,-9.33 -10.85,-9.33l-25.81,0l0,-15.83c0,-7.59 -4.34,-11.28 -11.93,-9.54l-3.04,0.65c-6.29,1.3 -9.55,5.21 -9.55,11.71l0,31.89l0.01,0z" class="cls-2"/>
  <path id="svg_10" fill="#ffffff" d="m883.72,409.79l0,-102.4c0,-6.94 3.83,-10.85 10.65,-10.85l2.77,0c6.82,0 10.65,3.9 10.65,10.85l0,102.4c0,6.94 -3.83,10.85 -10.65,10.85l-2.77,0c-6.81,0 -10.65,-3.91 -10.65,-10.85m-2.05,-142.96c0,-8.24 6.08,-13.02 14.32,-13.02c7.59,0 14.32,4.77 14.32,13.02s-6.72,13.02 -14.32,13.02c-8.24,0 -14.32,-4.77 -14.32,-13.02" class="cls-2"/>
  <path id="svg_11" fill="#ffffff" d="m1036.06,358.59c0,-27.12 -15.62,-43.82 -38.62,-43.82s-38.4,16.49 -38.4,43.82s15.4,44.04 38.61,44.04s38.4,-16.7 38.4,-44.04m-101.31,0c0,-44.69 31.02,-64.43 62.69,-64.43s62.91,19.74 62.91,64.43s-31.02,64.87 -62.7,64.87s-62.91,-19.74 -62.91,-64.87" class="cls-2"/>
  <path id="svg_12" fill="#ffffff" d="m555.77,635.72c-20.98,0 -43.14,-8.4 -53.65,-21.66c-4.48,-5.66 -2.27,-11.59 5.03,-13.78l2.19,-0.66c4.79,-1.44 8.09,-1.29 14.43,4.4c8.73,7.81 20.59,10.69 31.98,10.69c18.2,0 29.05,-6.49 29.05,-17.5c0,-28.88 -81.14,-5.95 -81.14,-54.7c0,-23.07 23.3,-36.31 50.17,-36.31c16.23,0 36.53,6.55 47.41,17.94c5.14,5.38 3.37,11.43 -3.72,13.56l-2.19,0.66c-5.91,1.77 -8.92,-0.39 -14.66,-3.87c-8.18,-4.96 -17.02,-8.16 -26.45,-8.16c-15.78,0 -26.5,5.22 -26.5,15.04c0,27.98 81.79,4.55 81.79,55.18c0,23.26 -22.47,39.16 -53.78,39.16l0,0l0.04,0.01z" class="cls-2"/>
  <path id="svg_13" fill="#ffffff" d="m639.98,526.42l0,56.23c0,38.29 14.66,51.63 46.82,51.63l0,0c1.97,0 4.16,-0.03 6.34,-0.22c6.96,-0.66 9.89,-4.49 9.19,-11.16c-0.61,-5.93 -5.03,-8.31 -11.81,-8.31c-19.03,0 -25.82,-8.97 -25.82,-34.79l0,-53.38l26.03,0c7,0 10.94,-3.5 10.94,-9.63s-3.94,-9.41 -10.94,-9.41l-26.03,0l0,-15.97c0,-7.66 -4.38,-11.38 -12.03,-9.63l-3.06,0.66c-6.34,1.31 -9.63,5.25 -9.63,11.81l0,32.16l0,0.01z" class="cls-2"/>
  <path id="svg_14" fill="#ffffff" d="m826.59,508.39c7,0 10.94,3.94 10.94,10.94l0,103.27c0,7 -3.94,10.94 -10.94,10.94l-2.62,0c-7,0 -10.94,-3.94 -10.94,-10.94l0,-12.45c-5.69,14.51 -19.9,25.57 -40.91,25.57c-34.57,0 -50.54,-19.91 -50.54,-59.51l0,-56.89c0,-7 3.94,-10.93 10.94,-10.93l2.63,0c7,0 10.94,3.93 10.94,10.93l0,54.92c0,27.35 10.5,40.26 33.69,40.26s33.26,-15.53 33.26,-43.1l0,-52.07c0,-7 3.94,-10.93 10.94,-10.93l2.62,0l-0.01,-0.01z" class="cls-2"/>
  <path id="svg_15" fill="#ffffff" d="m967.71,570.31c0,-27.35 -15.75,-44.19 -39.16,-44.19s-38.72,16.63 -38.72,44.19s15.75,44.41 39.16,44.41s38.72,-16.85 38.72,-44.41m-102.39,0c0,-43.1 26.25,-64.98 57.32,-64.98c19.69,0 37.41,9.63 44.41,26.91l0,-54.26c0,-7 3.94,-10.94 10.94,-10.94l2.62,0c7,0 10.94,3.94 10.94,10.94l0,143.74c0,7 -3.94,10.94 -10.94,10.94l-2.62,0c-7,0 -10.94,-3.94 -10.94,-10.94l0,-12.69c-7,16.85 -24.72,26.69 -44.19,26.69c-31.07,0 -57.54,-22.09 -57.54,-65.41" class="cls-2"/>
  <path id="svg_16" fill="#ffffff" d="m1023.66,624.38l0,-103.27c0,-7 3.87,-10.94 10.74,-10.94l2.79,0c6.87,0 10.74,3.94 10.74,10.94l0,103.27c0,7 -3.87,10.94 -10.74,10.94l-2.79,0c-6.87,0 -10.74,-3.94 -10.74,-10.94m-2.07,-144.18c0,-8.31 6.13,-13.13 14.44,-13.13c7.66,0 14.44,4.81 14.44,13.13s-6.78,13.13 -14.44,13.13c-8.31,0 -14.44,-4.81 -14.44,-13.13" class="cls-2"/>
  <path id="svg_17" fill="#ffffff" d="m1177.29,570.31c0,-27.35 -15.75,-44.19 -38.94,-44.19s-38.72,16.63 -38.72,44.19s15.53,44.41 38.94,44.41s38.72,-16.85 38.72,-44.41m-102.17,0c0,-45.07 31.29,-64.98 63.23,-64.98s63.45,19.91 63.45,64.98s-31.29,65.41 -63.23,65.41s-63.45,-19.91 -63.45,-65.41" class="cls-2"/>
  <path id="svg_18" fill="#a51d78" d="m1366.99,177.21c7.75,6.65 16.32,15.32 24.3,26.23c19.82,27.08 29.56,59.09 28.94,95.13c-0.29,16.74 -3.42,30.61 -9.31,41.23c-0.55,1 -1.14,1.99 -1.74,2.94c-1.17,1.86 -2.46,3.67 -3.82,5.37c-3.28,4.11 -7.15,7.78 -11.48,10.91c-0.85,0.61 -1.73,1.21 -2.61,1.79c-1.77,1.14 -3.63,2.22 -5.54,3.2c-2.85,1.46 -5.89,2.76 -9.03,3.84c-2.08,0.72 -4.25,1.36 -6.44,1.91c-6.58,1.65 -13.54,2.48 -20.67,2.48c-19.29,0 -36.82,-6.22 -49.35,-17.5c-14.34,-12.91 -21.61,-31.67 -21.61,-55.75c0,-30.01 11.74,-53.91 31.41,-63.94c15.09,-7.69 29.61,-15.71 41.22,-29.17c7.24,-8.39 12.46,-17.89 15.72,-28.67m-14.08,-37.87c-3.24,0 -6.11,2.04 -6.11,5.55l0,0c0.97,42.1 -22.01,55.46 -47.74,68.58c-26.46,13.49 -44.63,43.79 -44.63,85.51c0,66.7 47.26,97.47 95.17,97.47c8.98,0 17.93,-1.05 26.54,-3.2c2.87,-0.72 5.7,-1.56 8.49,-2.52c4.18,-1.45 8.24,-3.17 12.16,-5.18c2.61,-1.34 5.16,-2.81 7.63,-4.41c1.24,-0.8 2.45,-1.63 3.65,-2.49c5.98,-4.32 11.44,-9.45 16.21,-15.43c1.91,-2.39 3.71,-4.92 5.39,-7.58c0.84,-1.33 1.65,-2.7 2.42,-4.1c7.76,-14 11.99,-31.44 12.35,-52.56c1.63,-95.85 -61.94,-144.16 -87.99,-158.76c-0.99,-0.56 -2.19,-0.88 -3.54,-0.88l0,0z" class="cls-3"/>
  <path id="svg_19" fill="#e94642" d="m1234.82,24.21c19.29,0 36.82,6.22 49.35,17.5c14.34,12.91 21.61,31.67 21.61,55.75c0,30.01 -11.74,53.91 -31.41,63.94c-15.09,7.69 -29.61,15.71 -41.22,29.17c-7.24,8.39 -12.46,17.89 -15.72,28.67c-7.75,-6.65 -16.32,-15.32 -24.3,-26.23c-19.82,-27.08 -29.56,-59.09 -28.94,-95.13c0.29,-16.74 3.42,-30.61 9.31,-41.23c0.55,-1 1.14,-1.98 1.74,-2.93c1.17,-1.86 2.46,-3.67 3.82,-5.37c3.28,-4.11 7.15,-7.78 11.48,-10.91c0.85,-0.61 1.73,-1.21 2.61,-1.79c1.77,-1.14 3.63,-2.22 5.54,-3.2c2.85,-1.46 5.89,-2.76 9.03,-3.84c2.08,-0.72 4.25,-1.36 6.44,-1.91c6.58,-1.65 13.54,-2.48 20.67,-2.48m0,-24.21c-8.98,0 -17.93,1.05 -26.54,3.2c-2.87,0.72 -5.7,1.56 -8.49,2.52c-4.18,1.45 -8.24,3.17 -12.16,5.18c-2.61,1.34 -5.16,2.81 -7.63,4.41c-1.24,0.8 -2.45,1.63 -3.65,2.49c-5.98,4.32 -11.44,9.45 -16.21,15.43c-1.91,2.39 -3.71,4.92 -5.39,7.58c-0.84,1.33 -1.65,2.7 -2.42,4.1c-7.76,14 -11.99,31.44 -12.35,52.56c-1.63,95.85 61.94,144.16 87.99,158.76c0.99,0.56 2.19,0.88 3.54,0.88c3.24,0 6.11,-2.04 6.11,-5.55l0,0c-0.97,-42.1 22.01,-55.46 47.74,-68.58c26.46,-13.49 44.63,-43.79 44.63,-85.51c0,-66.7 -47.26,-97.47 -95.17,-97.47l0,0z" class="cls-1"/>
 </g>
</svg>