<?xml version="1.0" encoding="UTF-8"?><svg id="Ebene_1" xmlns="http://www.w3.org/2000/svg" viewBox="0 0 447.49 582.57"><defs><style>.cls-1{fill:#e94642;}.cls-2{fill:#a51d78;}</style></defs><path class="cls-2" d="M333.63,260.39c11.39,9.77,23.98,22.51,35.71,38.54,29.12,39.79,43.43,86.82,42.53,139.8-.42,24.59-5.02,44.98-13.68,60.58-.81,1.47-1.67,2.92-2.55,4.31-1.72,2.74-3.61,5.39-5.61,7.89-4.83,6.04-10.5,11.44-16.87,16.04-1.25,.9-2.54,1.78-3.84,2.63-2.59,1.68-5.33,3.26-8.14,4.7-4.19,2.15-8.65,4.05-13.26,5.65-3.06,1.06-6.24,2.01-9.46,2.81-9.67,2.42-19.9,3.64-30.38,3.64-28.34,0-54.1-9.14-72.52-25.72-21.07-18.97-31.75-46.53-31.75-81.93,0-44.1,17.26-79.22,46.16-93.95,22.18-11.3,43.5-23.09,60.57-42.86,10.64-12.33,18.32-26.29,23.09-42.13m-20.69-55.64c-4.76,0-8.97,2.99-8.97,8.16h0c1.43,61.87-32.34,81.5-70.16,100.77-38.88,19.82-65.58,64.35-65.58,125.65,0,98.01,69.45,143.23,139.85,143.23,13.2,0,26.35-1.54,39.01-4.7,4.22-1.05,8.38-2.29,12.47-3.7,6.14-2.13,12.11-4.66,17.87-7.62,3.84-1.97,7.58-4.13,11.21-6.48,1.82-1.17,3.6-2.4,5.36-3.66,8.78-6.35,16.81-13.89,23.83-22.67,2.81-3.51,5.45-7.22,7.91-11.13,1.23-1.96,2.42-3.96,3.56-6.02,11.41-20.57,17.61-46.2,18.14-77.24,2.4-140.84-91.02-211.84-129.3-233.29-1.46-.82-3.22-1.29-5.2-1.29h0Z"/><path class="cls-1" d="M139.41,35.58c28.34,0,54.1,9.14,72.52,25.72,21.07,18.97,31.75,46.53,31.75,81.93,0,44.1-17.26,79.22-46.16,93.95-22.18,11.3-43.5,23.09-60.57,42.86-10.64,12.33-18.32,26.29-23.09,42.13-11.39-9.77-23.98-22.51-35.71-38.54-29.12-39.79-43.43-86.82-42.53-139.8,.42-24.59,5.02-44.98,13.68-60.58,.81-1.46,1.67-2.91,2.55-4.31,1.72-2.74,3.61-5.4,5.61-7.89,4.83-6.04,10.5-11.44,16.87-16.04,1.25-.9,2.54-1.78,3.84-2.63,2.59-1.68,5.33-3.26,8.14-4.7,4.19-2.15,8.65-4.05,13.26-5.65,3.06-1.06,6.25-2.01,9.46-2.81,9.67-2.42,19.9-3.64,30.38-3.64m0-35.58c-13.2,0-26.35,1.54-39.01,4.7-4.22,1.05-8.38,2.29-12.47,3.7-6.14,2.13-12.11,4.66-17.87,7.62-3.84,1.97-7.58,4.13-11.21,6.48-1.82,1.17-3.6,2.4-5.36,3.66-8.78,6.35-16.81,13.89-23.83,22.67-2.81,3.51-5.45,7.22-7.91,11.13-1.23,1.96-2.42,3.96-3.56,6.02C6.78,86.56,.57,112.19,.05,143.23c-2.4,140.84,91.02,211.84,129.3,233.29,1.46,.82,3.22,1.29,5.2,1.29,4.76,0,8.97-2.99,8.97-8.16h0c-1.43-61.87,32.34-81.5,70.16-100.77,38.88-19.82,65.58-64.35,65.58-125.65C279.27,45.22,209.82,0,139.41,0h0Z"/></svg>